<svg width="20" height="19" viewBox="0 0 20 19" fill="none" xmlns="http://www.w3.org/2000/svg">
<path fill-rule="evenodd" clip-rule="evenodd" d="M5.47619 2.41193C3.50962 2.41193 1.90476 4.02439 1.90476 6.02667C1.90476 7.29839 2.64811 8.60997 3.82098 9.97233C5.73195 12.192 7.94472 14.5115 10 16.4155C12.0553 14.5115 14.2681 12.192 16.179 9.97233C17.3519 8.60997 18.0952 7.29839 18.0952 6.02667C18.0952 4.02439 16.4904 2.41193 14.5238 2.41193C13.6741 2.41193 12.8954 2.71109 12.2816 3.21288C11.634 3.74236 11.2937 4.12275 11.1045 4.35587C11.0557 4.41602 11.0146 4.46936 10.9769 4.51881C10.9703 4.52741 10.9633 4.53672 10.9559 4.54648C10.9264 4.58535 10.8914 4.63138 10.8614 4.66884C10.8291 4.70928 10.7559 4.80014 10.6571 4.88296C10.5575 4.96641 10.3196 5.13738 9.97071 5.13049C9.62604 5.12369 9.39702 4.94718 9.30448 4.86569C9.21054 4.78297 9.14058 4.69314 9.10951 4.65304C9.06007 4.58921 9.03374 4.55305 9.00888 4.51893C8.97692 4.47504 8.94741 4.43452 8.87437 4.34286C8.69042 4.11204 8.35722 3.73521 7.71836 3.21288C7.10462 2.71109 6.3259 2.41193 5.47619 2.41193ZM0 6.02667C0 2.9803 2.4459 0.5 5.47619 0.5C6.78112 0.5 7.98112 0.961808 8.92129 1.73047C9.39381 2.1168 9.73924 2.44889 9.9973 2.72631C10.257 2.45022 10.6044 2.1183 11.0787 1.73047C12.0189 0.961808 13.2189 0.5 14.5238 0.5C17.5541 0.5 20 2.9803 20 6.02667C20 8.01838 18.861 9.78126 17.6202 11.2224C15.5659 13.6087 13.1663 16.1129 10.9567 18.1287C10.4139 18.6238 9.58609 18.6238 9.04334 18.1287C6.8337 16.1129 4.43414 13.6087 2.37979 11.2224C1.13905 9.78126 0 8.01838 0 6.02667Z" fill="#111111"/>
<path fill-rule="evenodd" clip-rule="evenodd" d="M5.47619 2.41193C3.50962 2.41193 1.90476 4.02439 1.90476 6.02667C1.90476 7.29839 2.64811 8.60997 3.82098 9.97233C5.73195 12.192 7.94472 14.5115 10 16.4155C12.0553 14.5115 14.2681 12.192 16.179 9.97233C17.3519 8.60997 18.0952 7.29839 18.0952 6.02667C18.0952 4.02439 16.4904 2.41193 14.5238 2.41193C13.6741 2.41193 12.8954 2.71109 12.2816 3.21288C11.634 3.74236 11.2937 4.12275 11.1045 4.35587C11.0557 4.41602 11.0146 4.46936 10.9769 4.51881C10.9703 4.52741 10.9633 4.53672 10.9559 4.54648C10.9264 4.58535 10.8914 4.63138 10.8614 4.66884C10.8291 4.70928 10.7559 4.80014 10.6571 4.88296C10.5575 4.96641 10.3196 5.13738 9.97071 5.13049C9.62604 5.12369 9.39702 4.94718 9.30448 4.86569C9.21054 4.78297 9.14058 4.69314 9.10951 4.65304C9.06007 4.58921 9.03374 4.55305 9.00888 4.51893C8.97692 4.47504 8.94741 4.43452 8.87437 4.34286C8.69042 4.11204 8.35722 3.73521 7.71836 3.21288C7.10462 2.71109 6.3259 2.41193 5.47619 2.41193ZM0 6.02667C0 2.9803 2.4459 0.5 5.47619 0.5C6.78112 0.5 7.98112 0.961808 8.92129 1.73047C9.39381 2.1168 9.73924 2.44889 9.9973 2.72631C10.257 2.45022 10.6044 2.1183 11.0787 1.73047C12.0189 0.961808 13.2189 0.5 14.5238 0.5C17.5541 0.5 20 2.9803 20 6.02667C20 8.01838 18.861 9.78126 17.6202 11.2224C15.5659 13.6087 13.1663 16.1129 10.9567 18.1287C10.4139 18.6238 9.58609 18.6238 9.04334 18.1287C6.8337 16.1129 4.43414 13.6087 2.37979 11.2224C1.13905 9.78126 0 8.01838 0 6.02667Z" fill="black" fill-opacity="0.2"/>
</svg>
