<svg width="21" height="23" viewBox="0 0 21 23" fill="none" xmlns="http://www.w3.org/2000/svg">
<path d="M10.4995 2.3335C10.849 2.3335 11.1649 2.55134 11.3032 2.8876L13.4635 8.14299L18.9021 8.67142C19.25 8.70524 19.5454 8.95272 19.6534 9.30091C19.7614 9.6491 19.6613 10.0312 19.3987 10.2728L15.2953 14.0493L16.4962 19.6313C16.5731 19.9884 16.4397 20.3592 16.1569 20.5744C15.8742 20.7896 15.4964 20.8079 15.1959 20.621L10.4995 17.6996L5.80313 20.621C5.50265 20.8079 5.12481 20.7896 4.84208 20.5744C4.55936 20.3592 4.42597 19.9884 4.5028 19.6313L5.70369 14.0493L1.60028 10.2728C1.33773 10.0312 1.2376 9.6491 1.3456 9.30091C1.45359 8.95272 1.74899 8.70524 2.09696 8.67142L7.53553 8.14299L9.69587 2.8876C9.83409 2.55134 10.15 2.3335 10.4995 2.3335Z" fill="#F4A209"/>
</svg>
