<svg width="37" height="34" viewBox="0 0 37 34" fill="none" xmlns="http://www.w3.org/2000/svg">
<path d="M18.4997 1.1665C19.1487 1.1665 19.7354 1.54278 19.9921 2.12359L24.0042 11.2011L34.1044 12.1138C34.7506 12.1722 35.2992 12.5997 35.4998 13.2011C35.7003 13.8025 35.5144 14.4626 35.0268 14.8799L27.4062 21.4029L29.6364 31.0445C29.7791 31.6614 29.5314 32.3019 29.0063 32.6736C28.4813 33.0452 27.7796 33.0769 27.2215 32.754L18.4997 27.7079L9.77781 32.754C9.21976 33.0769 8.51806 33.0452 7.99299 32.6736C7.46793 32.3019 7.22021 31.6614 7.36291 31.0445L9.59312 21.4029L1.97251 14.8799C1.48492 14.4626 1.29896 13.8025 1.49952 13.2011C1.70008 12.5997 2.24868 12.1722 2.89492 12.1138L12.9951 11.2011L17.0072 2.12359C17.2639 1.54278 17.8506 1.1665 18.4997 1.1665Z" stroke="#8D8D8D" stroke-width="2" stroke-linejoin="round"/>
</svg>
