<svg width="73" height="73" viewBox="0 0 73 73" fill="none" xmlns="http://www.w3.org/2000/svg">
<path d="M73.0004 72.0068H67.5293V19.268C67.5293 17.3478 67.5293 15.6925 67.5293 14.302C67.5293 12.9115 67.5624 11.6204 67.6287 10.4285C67.695 9.23669 67.7282 8.11106 67.7282 7.05165C66.9324 7.91242 66.1034 8.70698 65.2413 9.43532C64.4455 10.0975 63.4839 10.9251 62.3565 11.9183L53.1052 19.5659L50.0215 15.5932L68.3251 1.09247H73.0004V72.0068Z" fill="#111111"/>
<path d="M44.0213 36.351C44.0213 42.3102 43.5903 47.5741 42.7281 52.1429C41.9323 56.7116 40.6391 60.5519 38.8486 63.6639C37.1243 66.7097 34.9027 69.0272 32.1837 70.6163C29.4647 72.2054 26.2151 73 22.435 73C17.6602 73 13.6812 71.6426 10.4979 68.9279C7.3147 66.1469 4.92728 62.0417 3.33566 56.6122C1.74405 51.1166 0.948242 44.3628 0.948242 36.351C0.948242 29.0014 1.64457 22.6118 3.03724 17.1823C4.4299 11.7528 6.68469 7.5483 9.8016 4.56871C12.9848 1.5229 17.196 0 22.435 0C27.6741 0 31.8521 1.4898 34.969 4.46939C38.1522 7.44898 40.4402 11.6535 41.8329 17.083C43.2918 22.5125 44.0213 28.9351 44.0213 36.351ZM6.5189 36.351C6.5189 43.502 7.08259 49.4281 8.20999 54.1292C9.33738 58.7642 11.0616 62.2404 13.3827 64.5578C15.7702 66.8753 18.7876 68.034 22.435 68.034C26.2151 68.034 29.2657 66.9084 31.5868 64.6571C33.9079 62.3397 35.599 58.8304 36.6601 54.1292C37.7212 49.4281 38.2517 43.502 38.2517 36.351C38.2517 29.7297 37.7543 24.1016 36.7596 19.4667C35.8311 14.7655 34.2064 11.19 31.8853 8.74014C29.6305 6.22404 26.5136 4.96599 22.5345 4.96599C18.5555 4.96599 15.4054 6.22404 13.0843 8.74014C10.7632 11.2562 9.07211 14.8649 8.01103 19.566C7.01627 24.2009 6.5189 29.7959 6.5189 36.351Z" fill="#111111"/>
</svg>
