<svg width="92" height="74" viewBox="0 0 92 74" fill="none" xmlns="http://www.w3.org/2000/svg">
<path d="M91.9998 72.5H49.2998V67.7L68.4998 46.4C71.6998 42.8666 74.3998 39.7 76.5998 36.9C78.7998 34.1 80.4665 31.3 81.5998 28.5C82.7331 25.6333 83.2998 22.5 83.2998 19.1C83.2998 14.6333 82.0665 11.2 79.5998 8.79998C77.1998 6.33331 73.9331 5.09998 69.7998 5.09998C66.9331 5.09998 64.1665 5.66664 61.4998 6.79998C58.8331 7.93331 56.2331 9.56664 53.6998 11.7L50.5998 7.69998C52.4665 6.09998 54.3998 4.73331 56.3998 3.59998C58.4665 2.46664 60.6331 1.59998 62.8998 0.999975C65.1665 0.399975 67.5331 0.0999756 69.9998 0.0999756C73.9331 0.0999756 77.2998 0.866641 80.0998 2.39997C82.9665 3.86664 85.1665 5.99998 86.6998 8.79998C88.2998 11.6 89.0998 14.9333 89.0998 18.8C89.0998 21.7333 88.6998 24.4333 87.8998 26.9C87.1665 29.3666 86.0998 31.7666 84.6998 34.1C83.2998 36.4333 81.5998 38.8 79.5998 41.2C77.6665 43.5333 75.4998 46.0333 73.0998 48.7L56.5998 67V67.3H91.9998V72.5Z" fill="#111111"/>
<path d="M43.3 36.6C43.3 42.6 42.8667 47.9 42 52.5C41.2 57.1 39.9 60.9667 38.1 64.1C36.3667 67.1667 34.1333 69.5 31.4 71.1C28.6667 72.7 25.4 73.5 21.6 73.5C16.8 73.5 12.8 72.1333 9.6 69.4C6.4 66.6 4 62.4667 2.4 57C0.8 51.4667 0 44.6667 0 36.6C0 29.2 0.7 22.7667 2.1 17.3C3.5 11.8333 5.76667 7.6 8.9 4.6C12.1 1.53333 16.3333 0 21.6 0C26.8667 0 31.0667 1.5 34.2 4.5C37.4 7.5 39.7 11.7333 41.1 17.2C42.5667 22.6667 43.3 29.1333 43.3 36.6ZM5.6 36.6C5.6 43.8 6.16667 49.7667 7.3 54.5C8.43333 59.1667 10.1667 62.6667 12.5 65C14.9 67.3333 17.9333 68.5 21.6 68.5C25.4 68.5 28.4667 67.3667 30.8 65.1C33.1333 62.7667 34.8333 59.2333 35.9 54.5C36.9667 49.7667 37.5 43.8 37.5 36.6C37.5 29.9333 37 24.2667 36 19.6C35.0667 14.8667 33.4333 11.2667 31.1 8.8C28.8333 6.26667 25.7 5 21.7 5C17.7 5 14.5333 6.26667 12.2 8.8C9.86667 11.3333 8.16667 14.9667 7.1 19.7C6.1 24.3667 5.6 30 5.6 36.6Z" fill="#111111"/>
</svg>
