<svg width="93" height="74" viewBox="0 0 93 74" fill="none" xmlns="http://www.w3.org/2000/svg">
<path d="M90.9999 17.6C90.9999 20.7333 90.3999 23.5 89.1999 25.9C87.9999 28.3 86.3332 30.2666 84.1999 31.8C82.0666 33.3333 79.5999 34.4 76.7999 35V35.2C82.1332 35.9333 86.1666 37.7666 88.8999 40.7C91.6332 43.6333 92.9999 47.6333 92.9999 52.7C92.9999 56.7666 92.0999 60.4 90.2999 63.6C88.4999 66.7333 85.7999 69.1666 82.1999 70.9C78.5999 72.6333 74.0332 73.5 68.4999 73.5C64.8332 73.5 61.4666 73.1666 58.3999 72.5C55.3332 71.7666 52.4999 70.7333 49.8999 69.4V64C52.4999 65.3333 55.4332 66.4333 58.6999 67.3C62.0332 68.1666 65.3332 68.6 68.5999 68.6C74.8666 68.6 79.4999 67.1666 82.4999 64.3C85.5666 61.4333 87.0999 57.5333 87.0999 52.6C87.0999 49.0666 86.2666 46.2333 84.5999 44.1C82.9999 41.9666 80.7332 40.4333 77.7999 39.5C74.8666 38.5 71.3332 38 67.1999 38H60.1999V33H67.2999C70.7666 33 73.8332 32.4333 76.4999 31.3C79.2332 30.1666 81.3666 28.4666 82.8999 26.2C84.4332 23.9333 85.1999 21.1666 85.1999 17.9C85.1999 13.6333 83.9332 10.4333 81.3999 8.29998C78.8666 6.09998 75.4666 4.99998 71.1999 4.99998C68.8666 4.99998 66.6666 5.26664 64.5999 5.79997C62.5332 6.26664 60.5666 6.99998 58.6999 7.99998C56.8999 8.93331 55.0999 10.1 53.2999 11.5L50.4999 7.49998C52.2332 6.03331 54.1332 4.76664 56.1999 3.69998C58.3332 2.56664 60.6332 1.69997 63.0999 1.09997C65.6332 0.433308 68.3332 0.0999756 71.1999 0.0999756C77.5332 0.0999756 82.3999 1.66664 85.7999 4.79997C89.2666 7.86664 90.9999 12.1333 90.9999 17.6Z" fill="#FDFDFD"/>
<path d="M43.8999 36.6C43.8999 42.6 43.4665 47.9 42.5999 52.5C41.7999 57.1 40.4999 60.9667 38.6999 64.1C36.9665 67.1667 34.7332 69.5 31.9999 71.1C29.2665 72.7 25.9999 73.5 22.1999 73.5C17.3999 73.5 13.3999 72.1333 10.1999 69.4C6.99985 66.6 4.59985 62.4667 2.99985 57C1.39985 51.4667 0.599854 44.6667 0.599854 36.6C0.599854 29.2 1.29985 22.7667 2.69985 17.3C4.09985 11.8333 6.36652 7.6 9.49985 4.6C12.6999 1.53333 16.9332 0 22.1999 0C27.4665 0 31.6665 1.5 34.7999 4.5C37.9999 7.5 40.2999 11.7333 41.6999 17.2C43.1665 22.6667 43.8999 29.1333 43.8999 36.6ZM6.19985 36.6C6.19985 43.8 6.76652 49.7667 7.89985 54.5C9.03319 59.1667 10.7665 62.6667 13.0999 65C15.4999 67.3333 18.5332 68.5 22.1999 68.5C25.9999 68.5 29.0665 67.3667 31.3999 65.1C33.7332 62.7667 35.4332 59.2333 36.4999 54.5C37.5665 49.7667 38.0999 43.8 38.0999 36.6C38.0999 29.9333 37.5999 24.2667 36.5999 19.6C35.6665 14.8667 34.0332 11.2667 31.6999 8.8C29.4332 6.26667 26.2999 5 22.2999 5C18.2999 5 15.1332 6.26667 12.7999 8.8C10.4665 11.3333 8.76652 14.9667 7.69985 19.7C6.69985 24.3667 6.19985 30 6.19985 36.6Z" fill="#FDFDFD"/>
</svg>
