<svg width="174" height="20" viewBox="0 0 174 20" fill="none" xmlns="http://www.w3.org/2000/svg">
<path d="M158.817 18.4136V18.6136H159.017H173H173.2V18.4136V14.8046V14.6046H173H163.354V11.8242H172.056H172.256V11.6242V8.28581V8.08581H172.056H163.354V5.30536H173H173.2V5.10536V1.49634V1.29634H173H159.017H158.817V1.49634V18.4136Z" stroke="#FF4A2B" stroke-width="0.4"/>
<path d="M139.344 18.4136V18.6136H139.544H143.681H143.881V18.4136V8.52074L151.457 18.5343L151.517 18.6136H151.616H155.752H155.952V18.4136V1.49634V1.29634H155.752H151.616H151.416V1.49634V11.4538L143.84 1.37616L143.78 1.29634H143.681H139.544H139.344V1.49634V18.4136Z" stroke="#FF4A2B" stroke-width="0.4"/>
<path d="M127.457 0.822461C124.591 0.822461 122.226 1.59317 120.577 3.13481C118.925 4.67846 118.018 6.96987 118.018 9.95479C118.018 12.9286 118.926 15.2199 120.577 16.7662C122.226 18.3106 124.59 19.0871 127.457 19.0871C130.336 19.0871 132.706 18.3107 134.358 16.7663C136.012 15.22 136.919 12.9286 136.919 9.95479C136.919 6.98096 136.012 4.68963 134.358 3.14328C132.706 1.5989 130.336 0.822461 127.457 0.822461ZM132.36 9.95479C132.36 11.5999 131.91 12.8754 131.087 13.7388C130.265 14.6007 129.047 15.0781 127.457 15.0781C125.88 15.0781 124.667 14.601 123.848 13.739C123.028 12.8756 122.577 11.5999 122.577 9.95479C122.577 8.30969 123.028 7.02804 123.849 6.15885C124.668 5.29129 125.881 4.80893 127.457 4.80893C129.048 4.80893 130.266 5.27576 131.087 6.13438C131.909 6.99432 132.36 8.27494 132.36 9.95479Z" stroke="#FF4A2B" stroke-width="0.4"/>
<path d="M101.177 5.10536V5.30536H101.377H109.496L100.818 15.8732L100.772 15.9285V16.0001V18.4136V18.6136H100.972H115.719H115.919V18.4136V14.8046V14.6046H115.719H107.238L115.874 3.99099L115.919 3.93585V3.86476V1.49634V1.29634H115.719H101.377H101.177V1.49634V5.10536Z" stroke="#FF4A2B" stroke-width="0.4"/>
<path d="M81.5912 18.4136V18.5636H81.7412H85.8776H86.0276V18.4136V11.8418H88.9017L93.5552 18.4996L93.6 18.5636H93.6782H98.7362H99.0289L98.858 18.326L92.5596 9.57212L98.3853 1.58473L98.5592 1.34634H98.2641H93.4534H93.3742L93.3295 1.4117L88.8107 8.02303H86.0276V1.49634V1.34634H85.8776H81.7412H81.5912V1.49634V18.4136Z" fill="#111111" stroke="#FF4A2B" stroke-width="0.3"/>
<path d="M62.3172 16.826L62.2715 16.9451L62.3818 17.0093L62.4573 16.8797C62.3818 17.0093 62.3819 17.0094 62.3819 17.0094L62.3821 17.0095L62.3828 17.0099L62.3851 17.0112L62.3937 17.0161L62.4266 17.0346C62.4554 17.0506 62.498 17.0739 62.5538 17.1034C62.6654 17.1624 62.8299 17.2463 63.0432 17.3467C63.4698 17.5476 64.0918 17.8148 64.8761 18.0818C66.4444 18.6158 68.6641 19.15 71.2695 19.15C76.6167 19.15 79.0178 16.5246 79.0178 14.0827C79.0178 12.519 78.2553 11.3804 77.1324 10.5223C76.0148 9.66832 74.5327 9.08548 73.0682 8.62203C72.396 8.40929 71.7239 8.22068 71.0897 8.0427C71.0319 8.0265 70.9745 8.01038 70.9174 7.99434C70.2318 7.80171 69.5968 7.62067 69.0538 7.43208C68.5089 7.24281 68.0686 7.04986 67.7667 6.83749C67.4644 6.62484 67.3281 6.41292 67.3281 6.18797C67.3281 5.78876 67.6123 5.43404 68.19 5.17131C68.7649 4.90984 69.5957 4.75902 70.5951 4.75902C72.4561 4.75902 74.9437 5.4958 76.3327 6.44707L76.4664 6.53866L76.5474 6.39824L78.3683 3.24034L78.4315 3.1308L78.3342 3.05001L78.2384 3.16541C78.3342 3.05001 78.3341 3.04996 78.3341 3.0499L78.3339 3.04974L78.3333 3.04928L78.3315 3.04777L78.3249 3.04244L78.3003 3.02296C78.2789 3.00618 78.2473 2.98199 78.2057 2.95145C78.1225 2.89037 77.9992 2.80388 77.8366 2.70049C77.5113 2.4937 77.0288 2.21919 76.3956 1.94505C75.1289 1.39668 73.2597 0.85 70.8424 0.85C68.3285 0.85 66.3349 1.378 64.9648 2.29352C63.59 3.21217 62.8468 4.51997 62.8468 6.05263C62.8468 7.62651 63.6053 8.78724 64.7233 9.67012C65.8363 10.549 67.3126 11.159 68.772 11.6424C69.5014 11.884 70.2303 12.0951 70.911 12.2923L70.9153 12.2935C71.5987 12.4915 72.2315 12.6749 72.7731 12.8619C73.3165 13.0497 73.756 13.2372 74.0575 13.4397C74.3617 13.644 74.4915 13.8398 74.4915 14.0376C74.4915 14.3172 74.2728 14.6006 73.7436 14.8211C73.221 15.039 72.4393 15.1733 71.4269 15.1733C68.8253 15.1733 65.9962 14.3243 63.9266 13.1185L63.7742 13.0297L63.711 13.1944L62.3172 16.826Z" fill="#111111" stroke="#FF4A2B" stroke-width="0.3"/>
<path d="M39.2877 18.4136V18.5636H39.4377H43.5741H43.7241V18.4136V7.77522L47.3436 18.4617L47.3781 18.5636H47.4856H51.5321H51.6396L51.6742 18.4617L55.2936 7.77522V18.4136V18.5636H55.4436H59.58H59.73V18.4136V1.49634V1.34634H59.58H53.4204H53.3137L53.2787 1.44719L49.5089 12.3168L45.739 1.44719L45.7041 1.34634H45.5973H39.4377H39.2877V1.49634V18.4136Z" fill="#111111" stroke="#FF4A2B" stroke-width="0.3"/>
<path d="M27.3285 0.872461C24.4703 0.872461 22.1194 1.64082 20.482 3.17134C18.843 4.70337 17.9391 6.9802 17.9391 9.95479C17.9391 12.9182 18.8431 15.1949 20.4819 16.7297C22.1191 18.263 24.47 19.0371 27.3285 19.0371C30.198 19.0371 32.5545 18.2631 34.1946 16.7298C35.8363 15.195 36.7403 12.9183 36.7403 9.95479C36.7403 6.99133 35.8363 4.71457 34.1946 3.1798C32.5545 1.64652 30.198 0.872461 27.3285 0.872461ZM32.2815 9.95479C32.2815 11.6087 31.8282 12.8981 30.9938 13.7733C30.1603 14.6474 28.9278 15.1281 27.3285 15.1281C25.7406 15.1281 24.5137 14.6476 23.683 13.7735C22.8512 12.8982 22.3979 11.6087 22.3979 9.95479C22.3979 8.30085 22.8512 7.0055 23.6833 6.12452C24.5142 5.24476 25.7411 4.75893 27.3285 4.75893C28.9288 4.75893 30.161 5.22888 30.9939 6.09982C31.8278 6.97175 32.2815 8.26633 32.2815 9.95479Z" fill="#111111" stroke="#FF4A2B" stroke-width="0.3"/>
<path d="M6.31268 18.4136V18.5636H6.46268H10.599H10.749V18.4136V5.25536H16.0617H16.2117V5.10536V1.49634V1.34634H16.0617H1H0.85V1.49634V5.10536V5.25536H1H6.31268V18.4136Z" fill="#111111" stroke="#FF4A2B" stroke-width="0.3"/>
</svg>
