<svg width="14" height="14" viewBox="0 0 14 14" fill="none" xmlns="http://www.w3.org/2000/svg">
<path fill-rule="evenodd" clip-rule="evenodd" d="M12.9464 1.05361C13.1196 1.22682 13.1723 1.48686 13.0803 1.71386L8.50715 12.9943C8.40687 13.2417 8.15736 13.3951 7.89137 13.3729C7.62538 13.3507 7.40474 13.1581 7.34683 12.8975L6.2115 7.7885L1.10249 6.65317C0.841934 6.59526 0.649319 6.37462 0.627125 6.10863C0.604931 5.84264 0.758318 5.59313 1.00568 5.49285L12.2861 0.919689C12.5131 0.82766 12.7732 0.880405 12.9464 1.05361ZM3.27831 5.88742L6.85483 6.68221C7.08594 6.73356 7.26644 6.91406 7.31779 7.14517L8.11258 10.7217L11.4087 2.59134L3.27831 5.88742Z" fill="#2B2D33"/>
</svg>
