<svg width="32" height="32" viewBox="0 0 32 32" fill="none" xmlns="http://www.w3.org/2000/svg">
<path d="M10.0007 26.586V2H8.00072V26.586L4.05072 22.636L2.63672 24.05L8.29372 29.707C8.48125 29.8945 8.73555 29.9998 9.00072 29.9998C9.26588 29.9998 9.52019 29.8945 9.70772 29.707L15.3647 24.05L13.9507 22.636L10.0007 26.586ZM29.3647 7.95L23.7077 2.293C23.5202 2.10553 23.2659 2.00021 23.0007 2.00021C22.7356 2.00021 22.4812 2.10553 22.2937 2.293L16.6367 7.95L18.0507 9.364L22.0007 5.414V30H24.0007V5.414L27.9507 9.364L29.3647 7.95Z" fill="#FDFDFD"/>
</svg>
