<svg width="1603" height="171" viewBox="0 0 1603 171" fill="none" xmlns="http://www.w3.org/2000/svg">
<path fill-rule="evenodd" clip-rule="evenodd" d="M1470.93 164.559V5.604H1603V41.0877H1511.41V68.5952H1594.22V101.568H1511.41V129.075H1603V164.559H1470.93ZM1510.41 130.075V100.568H1593.22V69.5952H1510.41V40.0877H1602V6.604H1471.93V163.559H1602V130.075H1510.41Z" fill="#FDFDFD"/>
<path fill-rule="evenodd" clip-rule="evenodd" d="M1289.78 164.559V5.604H1329.76L1402.08 101.556V5.604H1442.56V164.559H1402.58L1330.26 69.2197V164.559H1289.78ZM1329.26 66.2469L1403.08 163.559H1441.56V6.604H1403.08V104.544L1329.26 6.604H1290.78V163.559H1329.26V66.2469Z" fill="#FDFDFD"/>
<path fill-rule="evenodd" clip-rule="evenodd" d="M1114.93 22.4311C1130.07 8.31888 1151.83 1.20911 1178.35 1.20911C1204.97 1.20911 1226.79 8.37166 1241.95 22.5097C1257.12 36.6579 1265.51 57.6674 1265.51 85.0813C1265.51 112.495 1257.12 133.505 1241.95 147.653C1226.79 161.791 1204.97 168.953 1178.35 168.953C1151.83 168.953 1130.07 161.79 1114.93 147.652C1099.78 133.504 1091.4 112.495 1091.4 85.0813C1091.4 57.5638 1099.78 36.5538 1114.93 22.4311ZM1212.73 120.778C1220.58 112.565 1224.82 100.495 1224.82 85.0813C1224.82 69.3494 1220.58 57.2295 1212.73 49.046C1204.89 40.8686 1193.31 36.4835 1178.35 36.4835C1163.5 36.4835 1151.97 41.0187 1144.15 49.2769C1136.32 57.5429 1132.09 69.6679 1132.09 85.0813C1132.09 100.495 1136.32 112.566 1144.15 120.779C1151.97 128.985 1163.5 133.47 1178.35 133.47C1193.31 133.47 1204.89 128.984 1212.73 120.778ZM1178.35 2.20911C1125.65 2.20911 1092.4 30.461 1092.4 85.0813C1092.4 139.492 1125.65 167.953 1178.35 167.953C1231.26 167.953 1264.51 139.492 1264.51 85.0813C1264.51 30.6703 1231.26 2.20911 1178.35 2.20911ZM1225.82 85.0813C1225.82 116.263 1208.67 134.47 1178.35 134.47C1148.24 134.47 1131.09 116.263 1131.09 85.0813C1131.09 53.8996 1148.24 35.4835 1178.35 35.4835C1208.67 35.4835 1225.82 53.2718 1225.82 85.0813Z" fill="#FDFDFD"/>
<path fill-rule="evenodd" clip-rule="evenodd" d="M934.739 41.0877V5.604H1070.16V28.9339L988.452 129.075H1070.16V164.559H930.975V140.808L1013.08 41.0877H934.739ZM1015.2 40.0877L931.975 141.167V163.559H1069.16V130.075H986.345L1069.16 28.5777V6.604H935.739V40.0877H1015.2Z" fill="#FDFDFD"/>
<path d="M753.081 163.559V6.604H791.559V68.5489H819.581L862.031 6.604H906.783L851.994 81.5238L911.174 163.559H864.123L820.417 101.195H791.559V163.559H753.081Z" fill="#F2EEEB" fill-opacity="0.94"/>
<path fill-rule="evenodd" clip-rule="evenodd" d="M751.081 165.559V4.604H793.559V66.5489H818.527L860.977 4.604H910.723L854.466 81.5318L915.083 165.559H863.082L819.376 103.195H793.559V165.559H751.081ZM791.559 101.195H820.417L864.123 163.559H911.174L851.994 81.5238L906.783 6.604H862.031L819.581 68.5489H791.559V6.604H753.081V163.559H791.559V101.195Z" fill="#FF4A2B"/>
<path d="M573.695 149.328L586.661 115.635C606.109 126.936 632.667 134.888 657.133 134.888C676.163 134.888 687.037 129.866 687.037 122.96C687.037 102.66 578.714 105.172 578.714 48.8772C578.714 21.4624 605.272 2 651.696 2C696.238 2 720.496 22.0902 720.496 22.0902L703.558 51.3885C690.383 42.3897 666.962 35.4837 649.396 35.4837C630.576 35.4837 617.61 41.1341 617.61 50.1328C617.61 72.1065 726.351 67.5025 726.351 123.378C726.351 144.934 705.021 169 655.67 169C607.573 169 573.695 149.328 573.695 149.328Z" fill="#F2EEEB" fill-opacity="0.94"/>
<path fill-rule="evenodd" clip-rule="evenodd" d="M571.216 150.202L585.637 112.727L587.666 113.906C606.833 125.044 633.047 132.888 657.133 132.888C666.51 132.888 673.693 131.646 678.454 129.667C683.303 127.651 685.037 125.176 685.037 122.96C685.037 121.434 684.043 119.777 681.27 117.919C678.533 116.086 674.506 114.366 669.46 112.628C664.44 110.898 658.569 109.201 652.208 107.364L652.162 107.35C645.834 105.522 639.044 103.561 632.248 101.316C618.657 96.8257 604.842 91.1404 594.402 82.9184C583.896 74.6438 576.714 63.7125 576.714 48.8772C576.714 34.4311 583.749 22.1166 596.687 13.4938C609.563 4.91271 628.237 0 651.696 0C674.275 0 691.744 5.09316 703.592 10.209C709.515 12.7661 714.032 15.3284 717.081 17.2621C718.606 18.229 719.764 19.0391 720.548 19.6133C720.94 19.9004 721.239 20.1285 721.443 20.2879C721.545 20.3676 721.624 20.4301 721.679 20.4742C721.691 20.4839 721.702 20.4928 721.712 20.5007C721.724 20.5107 721.734 20.5193 721.743 20.5263L721.762 20.5417L721.768 20.5467L721.77 20.5485C721.771 20.5493 721.772 20.5499 720.496 22.0902C720.496 22.0902 696.238 2 651.696 2C605.272 2 578.714 21.4624 578.714 48.8772C578.714 84.0504 621.002 96.2667 652.734 105.434C671.789 110.938 687.037 115.344 687.037 122.96C687.037 129.866 676.163 134.888 657.133 134.888C633.396 134.888 607.69 127.403 588.418 116.637C587.826 116.306 587.24 115.972 586.661 115.635L573.695 149.328L572.691 151.058L571.216 150.202ZM701.883 50.2899C688.468 41.8337 666.24 35.4837 649.396 35.4837C630.576 35.4837 617.61 41.1341 617.61 50.1328C617.61 58.6017 633.763 63.1227 653.617 68.6799C685.278 77.5414 726.351 89.0377 726.351 123.378C726.351 144.934 705.021 169 655.67 169C607.573 169 573.695 149.328 573.695 149.328C572.691 151.058 572.692 151.058 572.693 151.059L572.701 151.064L572.724 151.077L572.807 151.124C572.878 151.165 572.982 151.223 573.118 151.298C573.39 151.449 573.789 151.667 574.312 151.943C575.358 152.494 576.897 153.276 578.89 154.212C582.876 156.084 588.683 158.572 596.003 161.058C610.638 166.028 631.352 171 655.67 171C705.575 171 728.351 146.518 728.351 123.378C728.351 108.633 721.128 97.9047 710.573 89.8605C700.09 81.8714 686.219 76.439 672.583 72.135C666.32 70.1583 660.059 68.4059 654.161 66.7551C653.623 66.6045 653.088 66.4548 652.556 66.3059C646.176 64.518 640.287 62.843 635.256 61.1002C630.198 59.3483 626.168 57.5801 623.431 55.6599C620.688 53.7355 619.61 51.9291 619.61 50.1328C619.61 46.7798 621.991 43.6503 627.272 41.2551C632.514 38.8773 640.148 37.4837 649.396 37.4837C666.598 37.4837 689.618 44.2893 702.43 53.04L704.21 54.2561L723.074 21.628L721.772 20.5499L720.496 22.0902L703.558 51.3885C703.016 51.0186 702.457 50.6524 701.883 50.2899Z" fill="#FF4A2B"/>
<path d="M359.561 163.559V6.604H416.859L453.245 111.241L489.632 6.604H546.93V163.559H508.452V56.411L472.066 163.559H434.425L398.038 56.411V163.559H359.561Z" fill="#F2EEEB" fill-opacity="0.94"/>
<path fill-rule="evenodd" clip-rule="evenodd" d="M357.561 165.559V4.604H418.281L453.245 105.151L488.21 4.604H548.93V165.559H506.452V68.5202L473.499 165.559H432.992L400.038 68.5202V165.559H357.561ZM398.038 56.411L434.425 163.559H472.066L508.452 56.411V163.559H546.93V6.604H489.632L453.245 111.241L416.859 6.604H359.561V163.559H398.038V56.411Z" fill="#FF4A2B"/>
<path d="M160.968 85.0813C160.968 30.461 194.218 2.20911 246.916 2.20911C299.823 2.20911 333.072 30.6703 333.072 85.0813C333.072 139.492 299.823 167.953 246.916 167.953C194.218 167.953 160.968 139.492 160.968 85.0813ZM246.916 134.47C277.238 134.47 294.386 116.263 294.386 85.0813C294.386 53.2718 277.238 35.4835 246.916 35.4835C216.803 35.4835 199.655 53.8996 199.655 85.0813C199.655 116.263 216.803 134.47 246.916 134.47Z" fill="#F2EEEB" fill-opacity="0.94"/>
<path fill-rule="evenodd" clip-rule="evenodd" d="M182.817 21.6997C198.192 7.36569 220.226 0.209106 246.916 0.209106C273.712 0.209106 295.798 7.41892 311.198 21.7783C326.621 36.1581 335.072 57.4591 335.072 85.0813C335.072 112.703 326.621 134.005 311.198 148.384C295.798 162.744 273.712 169.953 246.916 169.953C220.223 169.953 198.189 162.743 182.815 148.383C167.42 134.004 158.968 112.703 158.968 85.0813C158.968 57.3564 167.419 36.0545 182.817 21.6997ZM280.576 120.087C288.2 112.111 292.386 100.317 292.386 85.0813C292.386 69.5222 288.195 57.682 280.578 49.7381C272.972 41.8066 261.685 37.4835 246.916 37.4835C232.274 37.4835 221.035 41.9498 213.445 49.9645C205.841 57.9947 201.655 69.8453 201.655 85.0813C201.655 100.317 205.841 112.112 213.441 120.089C221.029 128.052 232.268 132.47 246.916 132.47C261.673 132.47 272.964 128.049 280.576 120.087ZM246.916 2.20911C194.218 2.20911 160.968 30.461 160.968 85.0813C160.968 139.492 194.218 167.953 246.916 167.953C299.823 167.953 333.072 139.492 333.072 85.0813C333.072 30.6703 299.823 2.20911 246.916 2.20911ZM294.386 85.0813C294.386 116.263 277.238 134.47 246.916 134.47C216.803 134.47 199.655 116.263 199.655 85.0813C199.655 53.8996 216.803 35.4835 246.916 35.4835C277.238 35.4835 294.386 53.2718 294.386 85.0813Z" fill="#FF4A2B"/>
<path d="M52.8157 163.559V40.0877H2V6.604H142.109V40.0877H91.2934V163.559H52.8157Z" fill="#F2EEEB" fill-opacity="0.94"/>
<path fill-rule="evenodd" clip-rule="evenodd" d="M50.8157 165.559V42.0877H0V4.604H144.109V42.0877H93.2934V165.559H50.8157ZM91.2934 40.0877H142.109V6.604H2V40.0877H52.8157V163.559H91.2934V40.0877Z" fill="#FF4A2B"/>
</svg>
