<svg width="1604" height="171" viewBox="0 0 1604 171" fill="none" xmlns="http://www.w3.org/2000/svg">
<path fill-rule="evenodd" clip-rule="evenodd" d="M1471.43 164.559V5.604H1603.5V41.0877H1511.91V68.5952H1594.72V101.568H1511.91V129.075H1603.5V164.559H1471.43ZM1510.91 130.075V100.568H1593.72V69.5952H1510.91V40.0877H1602.5V6.604H1472.43V163.559H1602.5V130.075H1510.91Z" fill="#FDFDFD" fill-opacity="0.4"/>
<path fill-rule="evenodd" clip-rule="evenodd" d="M1290.28 164.559V5.604H1330.26L1402.58 101.556V5.604H1443.06V164.559H1403.08L1330.76 69.2197V164.559H1290.28ZM1329.76 66.2469L1403.58 163.559H1442.06V6.604H1403.58V104.544L1329.76 6.604H1291.28V163.559H1329.76V66.2469Z" fill="#FDFDFD" fill-opacity="0.4"/>
<path fill-rule="evenodd" clip-rule="evenodd" d="M1115.43 22.4313C1130.57 8.31901 1152.33 1.20923 1178.85 1.20923C1205.47 1.20923 1227.29 8.37178 1242.45 22.5098C1257.62 36.658 1266.01 57.6676 1266.01 85.0814C1266.01 112.495 1257.62 133.505 1242.45 147.653C1227.29 161.791 1205.47 168.954 1178.85 168.954C1152.33 168.954 1130.57 161.791 1115.43 147.652C1100.28 133.504 1091.9 112.495 1091.9 85.0814C1091.9 57.5639 1100.28 36.5539 1115.43 22.4313ZM1213.23 120.778C1221.08 112.565 1225.32 100.495 1225.32 85.0814C1225.32 69.3495 1221.08 57.2296 1213.23 49.0461C1205.39 40.8687 1193.81 36.4837 1178.85 36.4837C1164 36.4837 1152.47 41.0188 1144.65 49.277C1136.82 57.543 1132.59 69.668 1132.59 85.0814C1132.59 100.495 1136.82 112.566 1144.65 120.779C1152.47 128.985 1164 133.47 1178.85 133.47C1193.81 133.47 1205.39 128.984 1213.23 120.778ZM1178.85 2.20923C1126.15 2.20923 1092.9 30.4611 1092.9 85.0814C1092.9 139.492 1126.15 167.954 1178.85 167.954C1231.76 167.954 1265.01 139.492 1265.01 85.0814C1265.01 30.6704 1231.76 2.20923 1178.85 2.20923ZM1226.32 85.0814C1226.32 116.263 1209.17 134.47 1178.85 134.47C1148.74 134.47 1131.59 116.263 1131.59 85.0814C1131.59 53.8997 1148.74 35.4837 1178.85 35.4837C1209.17 35.4837 1226.32 53.2719 1226.32 85.0814Z" fill="#FDFDFD" fill-opacity="0.4"/>
<path fill-rule="evenodd" clip-rule="evenodd" d="M935.239 41.0877V5.604H1070.66V28.9339L988.952 129.075H1070.66V164.559H931.475V140.808L1013.58 41.0877H935.239ZM1015.7 40.0877L932.475 141.167V163.559H1069.66V130.075H986.845L1069.66 28.5777V6.604H936.239V40.0877H1015.7Z" fill="#FDFDFD" fill-opacity="0.4"/>
<path d="M753.581 163.559V6.604H792.059V68.5489H820.081L862.531 6.604H907.283L852.494 81.5238L911.674 163.559H864.623L820.917 101.195H792.059V163.559H753.581Z" fill="#111111"/>
<path fill-rule="evenodd" clip-rule="evenodd" d="M751.581 165.559V4.604H794.059V66.5489H819.027L861.477 4.604H911.223L854.966 81.5318L915.583 165.559H863.582L819.876 103.195H794.059V165.559H751.581ZM792.059 101.195H820.917L864.623 163.559H911.674L852.494 81.5238L907.283 6.604H862.531L820.081 68.5489H792.059V6.604H753.581V163.559H792.059V101.195Z" fill="#FF401F" fill-opacity="0.3"/>
<path d="M574.195 149.328L587.161 115.635C606.609 126.936 633.167 134.888 657.633 134.888C676.663 134.888 687.537 129.866 687.537 122.96C687.537 102.66 579.214 105.172 579.214 48.8772C579.214 21.4624 605.772 2 652.196 2C696.738 2 720.996 22.0902 720.996 22.0902L704.058 51.3885C690.883 42.3897 667.462 35.4837 649.896 35.4837C631.075 35.4837 618.11 41.1341 618.11 50.1328C618.11 72.1065 726.851 67.5025 726.851 123.378C726.851 144.934 705.521 169 656.17 169C608.072 169 574.195 149.328 574.195 149.328Z" fill="#111111"/>
<path fill-rule="evenodd" clip-rule="evenodd" d="M571.716 150.202L586.137 112.727L588.165 113.906C607.333 125.044 633.547 132.888 657.633 132.888C667.01 132.888 674.193 131.646 678.954 129.667C683.803 127.651 685.537 125.176 685.537 122.96C685.537 121.434 684.543 119.777 681.77 117.919C679.033 116.086 675.006 114.366 669.96 112.628C664.94 110.898 659.069 109.201 652.708 107.364L652.662 107.35C646.334 105.522 639.544 103.561 632.748 101.316C619.157 96.8257 605.342 91.1404 594.902 82.9184C584.396 74.6438 577.214 63.7125 577.214 48.8772C577.214 34.4311 584.249 22.1166 597.187 13.4938C610.063 4.91271 628.737 0 652.196 0C674.775 0 692.244 5.09316 704.092 10.209C710.015 12.7661 714.532 15.3284 717.581 17.2621C719.106 18.229 720.264 19.0391 721.048 19.6133C721.44 19.9004 721.739 20.1285 721.943 20.2879C722.045 20.3676 722.124 20.4301 722.179 20.4742C722.191 20.4839 722.202 20.4928 722.212 20.5007C722.224 20.5107 722.234 20.5193 722.243 20.5263L722.262 20.5417L722.268 20.5467L722.27 20.5485C722.271 20.5493 722.272 20.5499 720.996 22.0902C720.996 22.0902 696.738 2 652.196 2C605.772 2 579.214 21.4624 579.214 48.8772C579.214 84.0504 621.502 96.2667 653.234 105.434C672.289 110.938 687.537 115.344 687.537 122.96C687.537 129.866 676.663 134.888 657.633 134.888C633.896 134.888 608.19 127.403 588.918 116.637C588.326 116.306 587.74 115.972 587.161 115.635L574.195 149.328L573.191 151.058L571.716 150.202ZM702.382 50.2899C688.968 41.8337 666.74 35.4837 649.896 35.4837C631.075 35.4837 618.11 41.1341 618.11 50.1328C618.11 58.6017 634.263 63.1227 654.117 68.6799C685.778 77.5414 726.851 89.0377 726.851 123.378C726.851 144.934 705.521 169 656.17 169C608.072 169 574.195 149.328 574.195 149.328C573.191 151.058 573.192 151.058 573.192 151.059L573.201 151.064L573.224 151.077L573.307 151.124C573.378 151.165 573.482 151.223 573.618 151.298C573.889 151.449 574.289 151.667 574.812 151.943C575.858 152.494 577.397 153.276 579.39 154.212C583.376 156.084 589.183 158.572 596.503 161.058C611.138 166.028 631.852 171 656.17 171C706.075 171 728.851 146.518 728.851 123.378C728.851 108.633 721.628 97.9047 711.073 89.8605C700.59 81.8714 686.719 76.439 673.083 72.135C666.82 70.1583 660.559 68.4059 654.66 66.7551C654.123 66.6045 653.588 66.4548 653.056 66.3059C646.676 64.518 640.787 62.843 635.756 61.1002C630.698 59.3483 626.668 57.5801 623.931 55.6599C621.188 53.7355 620.11 51.9291 620.11 50.1328C620.11 46.7798 622.491 43.6503 627.771 41.2551C633.014 38.8773 640.648 37.4837 649.896 37.4837C667.098 37.4837 690.118 44.2893 702.929 53.04L704.71 54.2561L723.573 21.628L722.272 20.5499L720.996 22.0902L704.057 51.3885C703.516 51.0186 702.957 50.6524 702.382 50.2899Z" fill="#FF401F" fill-opacity="0.3"/>
<path d="M360.061 163.559V6.604H417.359L453.745 111.241L490.132 6.604H547.43V163.559H508.952V56.411L472.566 163.559H434.925L398.538 56.411V163.559H360.061Z" fill="#111111"/>
<path fill-rule="evenodd" clip-rule="evenodd" d="M358.061 165.559V4.604H418.781L453.745 105.151L488.71 4.604H549.43V165.559H506.952V68.5202L473.999 165.559H433.492L400.538 68.5202V165.559H358.061ZM398.538 56.411L434.925 163.559H472.566L508.952 56.411V163.559H547.43V6.604H490.132L453.745 111.241L417.359 6.604H360.061V163.559H398.538V56.411Z" fill="#FF401F" fill-opacity="0.3"/>
<path d="M161.468 85.0814C161.468 30.4611 194.718 2.20923 247.416 2.20923C300.323 2.20923 333.572 30.6704 333.572 85.0814C333.572 139.492 300.323 167.954 247.416 167.954C194.718 167.954 161.468 139.492 161.468 85.0814ZM247.416 134.47C277.738 134.47 294.885 116.263 294.885 85.0814C294.885 53.2719 277.738 35.4837 247.416 35.4837C217.303 35.4837 200.155 53.8997 200.155 85.0814C200.155 116.263 217.303 134.47 247.416 134.47Z" fill="#111111"/>
<path fill-rule="evenodd" clip-rule="evenodd" d="M183.317 21.6998C198.692 7.36581 220.726 0.209229 247.416 0.209229C274.212 0.209229 296.297 7.41904 311.698 21.7784C327.12 36.1582 335.572 57.4592 335.572 85.0814C335.572 112.704 327.12 134.005 311.698 148.384C296.297 162.744 274.212 169.954 247.416 169.954C220.722 169.954 198.689 162.743 183.315 148.383C167.92 134.004 159.468 112.703 159.468 85.0814C159.468 57.3566 167.919 36.0546 183.317 21.6998ZM281.076 120.087C288.7 112.111 292.885 100.317 292.885 85.0814C292.885 69.5224 288.695 57.6821 281.078 49.7382C273.472 41.8067 262.185 37.4837 247.416 37.4837C232.774 37.4837 221.535 41.9499 213.945 49.9646C206.341 57.9948 202.155 69.8454 202.155 85.0814C202.155 100.317 206.34 112.112 213.941 120.089C221.528 128.052 232.767 132.47 247.416 132.47C262.172 132.47 273.464 128.05 281.076 120.087ZM247.416 2.20923C194.718 2.20923 161.468 30.4611 161.468 85.0814C161.468 139.492 194.718 167.954 247.416 167.954C300.323 167.954 333.572 139.492 333.572 85.0814C333.572 30.6704 300.323 2.20923 247.416 2.20923ZM294.885 85.0814C294.885 116.263 277.738 134.47 247.416 134.47C217.303 134.47 200.155 116.263 200.155 85.0814C200.155 53.8997 217.303 35.4837 247.416 35.4837C277.738 35.4837 294.885 53.2719 294.885 85.0814Z" fill="#FF401F" fill-opacity="0.3"/>
<path d="M53.3157 163.559V40.0877H2.5V6.604H142.609V40.0877H91.7934V163.559H53.3157Z" fill="#111111"/>
<path fill-rule="evenodd" clip-rule="evenodd" d="M51.3157 165.559V42.0877H0.5V4.604H144.609V42.0877H93.7934V165.559H51.3157ZM91.7934 40.0877H142.609V6.604H2.5V40.0877H53.3157V163.559H91.7934V40.0877Z" fill="#FF401F" fill-opacity="0.3"/>
</svg>
